{"nbformat":4,"nbformat_minor":0,"metadata":{"colab":{"provenance":[{"file_id":"1tZpDWXz49W6wDcTprANRGLo2D_EbD5J8","timestamp":1694732196970},{"file_id":"1NLUwupCBsB1HrpEmOIHeMgU63sus2LxP","timestamp":1597735440478}],"gpuType":"T4"},"kernelspec":{"name":"python3","display_name":"Python 3"},"accelerator":"GPU"},"cells":[{"cell_type":"markdown","metadata":{"id":"vSQFs_G8caeE"},"source":["# LIP SYNC"]},{"cell_type":"code","source":["from google.colab import drive\n","drive.mount('/content/drive')"],"metadata":{"id":"IUDgdBu66JcP"},"execution_count":null,"outputs":[]},{"cell_type":"code","metadata":{"id":"XIVB0Xn1g6ih","colab":{"base_uri":"https://localhost:8080/"},"executionInfo":{"status":"ok","timestamp":1694729426479,"user_tz":-330,"elapsed":400,"user":{"displayName":"AKASH SHARMA","userId":"08407422410206115369"}},"outputId":"4003320e-0a23-41b6-c29d-f7d0bd01023b"},"source":["!nvcc --version"],"execution_count":1,"outputs":[{"output_type":"stream","name":"stdout","text":["nvcc: NVIDIA (R) Cuda compiler driver\n","Copyright (c) 2005-2022 NVIDIA Corporation\n","Built on Wed_Sep_21_10:33:58_PDT_2022\n","Cuda compilation tools, release 11.8, V11.8.89\n","Build cuda_11.8.r11.8/compiler.31833905_0\n"]}]},{"cell_type":"code","metadata":{"id":"qciH4PsUazL_","colab":{"base_uri":"https://localhost:8080/"},"executionInfo":{"status":"ok","timestamp":1694729449170,"user_tz":-330,"elapsed":18161,"user":{"displayName":"AKASH SHARMA","userId":"08407422410206115369"}},"outputId":"4cf02010-8bfd-4af8-ff62-99f5f72a0cb4"},"source":["from google.colab import drive\n","drive.mount('/content/gdrive')"],"execution_count":2,"outputs":[{"output_type":"stream","name":"stdout","text":["Mounted at /content/gdrive\n"]}]},{"cell_type":"markdown","metadata":{"id":"yJ5taGmPcWV-"},"source":["# Get the code and models"]},{"cell_type":"code","metadata":{"id":"P3LihClHbUd3","colab":{"base_uri":"https://localhost:8080/"},"executionInfo":{"status":"ok","timestamp":1694729467619,"user_tz":-330,"elapsed":1414,"user":{"displayName":"AKASH SHARMA","userId":"08407422410206115369"}},"outputId":"4b36b9bb-de1d-49fe-e97a-dccce519a60b"},"source":["!git clone https://github.com/Rudrabha/Wav2Lip.git"],"execution_count":3,"outputs":[{"output_type":"stream","name":"stdout","text":["Cloning into 'Wav2Lip'...\n","remote: Enumerating objects: 363, done.\u001b[K\n","remote: Counting objects: 100% (3/3), done.\u001b[K\n","remote: Compressing objects: 100% (3/3), done.\u001b[K\n","remote: Total 363 (delta 0), reused 1 (delta 0), pack-reused 360\u001b[K\n","Receiving objects: 100% (363/363), 528.20 KiB | 11.00 MiB/s, done.\n","Resolving deltas: 100% (198/198), done.\n"]}]},{"cell_type":"code","metadata":{"id":"y-19nzx8SamJ","colab":{"base_uri":"https://localhost:8080/"},"executionInfo":{"status":"ok","timestamp":1694729475550,"user_tz":-330,"elapsed":383,"user":{"displayName":"AKASH SHARMA","userId":"08407422410206115369"}},"outputId":"c5df79da-a221-4f84-e171-ea0a75390dbe"},"source":["!ls /content/gdrive/MyDrive/Wav2Lip"],"execution_count":4,"outputs":[{"output_type":"stream","name":"stdout","text":["ls: cannot access '/content/gdrive/MyDrive/Wav2Lip': No such file or directory\n"]}]},{"cell_type":"code","metadata":{"id":"YjzMPy_Sb0AI","executionInfo":{"status":"ok","timestamp":1694729510593,"user_tz":-330,"elapsed":5009,"user":{"displayName":"AKASH SHARMA","userId":"08407422410206115369"}}},"source":["!cp -ri \"/content/gdrive/MyDrive/projects/wav2lip/weights/wav2lip_gan.pth\" /content/Wav2Lip/checkpoints/"],"execution_count":5,"outputs":[]},{"cell_type":"markdown","metadata":{"id":"aWTaOS3ncFt6"},"source":["# Get the pre-requisites"]},{"cell_type":"code","metadata":{"id":"Ooh28vw-Uvd3","colab":{"base_uri":"https://localhost:8080/"},"executionInfo":{"status":"ok","timestamp":1694729545620,"user_tz":-330,"elapsed":15874,"user":{"displayName":"AKASH SHARMA","userId":"08407422410206115369"}},"outputId":"2405b114-2355-43fa-976d-0f92dfa9adf8"},"source":["!pip uninstall tensorflow tensorflow-gpu -y"],"execution_count":6,"outputs":[{"output_type":"stream","name":"stdout","text":["Found existing installation: tensorflow 2.13.0\n","Uninstalling tensorflow-2.13.0:\n","  Successfully uninstalled tensorflow-2.13.0\n","\u001b[33mWARNING: Skipping tensorflow-gpu as it is not installed.\u001b[0m\u001b[33m\n","\u001b[0m"]}]},{"cell_type":"code","metadata":{"id":"49dCYlLdcK2D","colab":{"base_uri":"https://localhost:8080/"},"executionInfo":{"status":"ok","timestamp":1694730290496,"user_tz":-330,"elapsed":5474,"user":{"displayName":"AKASH SHARMA","userId":"08407422410206115369"}},"outputId":"da4cea49-f0ec-4586-9939-04d8ef1eaba0"},"source":["!cd Wav2Lip && pip install -r requirements.txt"],"execution_count":23,"outputs":[{"output_type":"stream","name":"stdout","text":["Collecting librosa==0.8.0 (from -r requirements.txt (line 1))\n","  Downloading librosa-0.8.0.tar.gz (183 kB)\n","\u001b[2K     \u001b[90m━━━━━━━━━━━━━━━━━━━━━━━━━━━━━━━━━━━━━━━\u001b[0m \u001b[32m183.9/183.9 kB\u001b[0m \u001b[31m4.5 MB/s\u001b[0m eta \u001b[36m0:00:00\u001b[0m\n","\u001b[?25h  Preparing metadata (setup.py) ... \u001b[?25l\u001b[?25hdone\n","Requirement already satisfied: numpy>=1.21.2 in /usr/local/lib/python3.10/dist-packages (from -r requirements.txt (line 2)) (1.23.5)\n","Requirement already satisfied: opencv-contrib-python>=4.2.0.34 in /usr/local/lib/python3.10/dist-packages (from -r requirements.txt (line 3)) (4.8.0.76)\n","Requirement already satisfied: opencv-python==4.8.0.76 in /usr/local/lib/python3.10/dist-packages (from -r requirements.txt (line 4)) (4.8.0.76)\n","Requirement already satisfied: torch==2.0.1 in /usr/local/lib/python3.10/dist-packages (from -r requirements.txt (line 5)) (2.0.1+cu118)\n","Requirement already satisfied: torchvision==0.15.2 in /usr/local/lib/python3.10/dist-packages (from -r requirements.txt (line 6)) (0.15.2+cu118)\n","Requirement already satisfied: tqdm>=4.48.0 in /usr/local/lib/python3.10/dist-packages (from -r requirements.txt (line 7)) (4.66.1)\n","Requirement already satisfied: numba==0.57.1 in /usr/local/lib/python3.10/dist-packages (from -r requirements.txt (line 8)) (0.57.1)\n","Requirement already satisfied: audioread>=2.0.0 in /usr/local/lib/python3.10/dist-packages (from librosa==0.8.0->-r requirements.txt (line 1)) (3.0.0)\n","Requirement already satisfied: scipy>=1.0.0 in /usr/local/lib/python3.10/dist-packages (from librosa==0.8.0->-r requirements.txt (line 1)) (1.11.2)\n","Requirement already satisfied: scikit-learn!=0.19.0,>=0.14.0 in /usr/local/lib/python3.10/dist-packages (from librosa==0.8.0->-r requirements.txt (line 1)) (1.2.2)\n","Requirement already satisfied: joblib>=0.14 in /usr/local/lib/python3.10/dist-packages (from librosa==0.8.0->-r requirements.txt (line 1)) (1.3.2)\n","Requirement already satisfied: decorator>=3.0.0 in /usr/local/lib/python3.10/dist-packages (from librosa==0.8.0->-r requirements.txt (line 1)) (4.4.2)\n","Requirement already satisfied: resampy>=0.2.2 in /usr/local/lib/python3.10/dist-packages (from librosa==0.8.0->-r requirements.txt (line 1)) (0.4.2)\n","Requirement already satisfied: soundfile>=0.9.0 in /usr/local/lib/python3.10/dist-packages (from librosa==0.8.0->-r requirements.txt (line 1)) (0.12.1)\n","Requirement already satisfied: pooch>=1.0 in /usr/local/lib/python3.10/dist-packages (from librosa==0.8.0->-r requirements.txt (line 1)) (1.7.0)\n","Requirement already satisfied: filelock in /usr/local/lib/python3.10/dist-packages (from torch==2.0.1->-r requirements.txt (line 5)) (3.12.2)\n","Requirement already satisfied: typing-extensions in /usr/local/lib/python3.10/dist-packages (from torch==2.0.1->-r requirements.txt (line 5)) (4.5.0)\n","Requirement already satisfied: sympy in /usr/local/lib/python3.10/dist-packages (from torch==2.0.1->-r requirements.txt (line 5)) (1.12)\n","Requirement already satisfied: networkx in /usr/local/lib/python3.10/dist-packages (from torch==2.0.1->-r requirements.txt (line 5)) (3.1)\n","Requirement already satisfied: jinja2 in /usr/local/lib/python3.10/dist-packages (from torch==2.0.1->-r requirements.txt (line 5)) (3.1.2)\n","Requirement already satisfied: triton==2.0.0 in /usr/local/lib/python3.10/dist-packages (from torch==2.0.1->-r requirements.txt (line 5)) (2.0.0)\n","Requirement already satisfied: requests in /usr/local/lib/python3.10/dist-packages (from torchvision==0.15.2->-r requirements.txt (line 6)) (2.31.0)\n","Requirement already satisfied: pillow!=8.3.*,>=5.3.0 in /usr/local/lib/python3.10/dist-packages (from torchvision==0.15.2->-r requirements.txt (line 6)) (9.4.0)\n","Requirement already satisfied: llvmlite<0.41,>=0.40.0dev0 in /usr/local/lib/python3.10/dist-packages (from numba==0.57.1->-r requirements.txt (line 8)) (0.40.1)\n","Requirement already satisfied: cmake in /usr/local/lib/python3.10/dist-packages (from triton==2.0.0->torch==2.0.1->-r requirements.txt (line 5)) (3.27.4.1)\n","Requirement already satisfied: lit in /usr/local/lib/python3.10/dist-packages (from triton==2.0.0->torch==2.0.1->-r requirements.txt (line 5)) (16.0.6)\n","Requirement already satisfied: platformdirs>=2.5.0 in /usr/local/lib/python3.10/dist-packages (from pooch>=1.0->librosa==0.8.0->-r requirements.txt (line 1)) (3.10.0)\n","Requirement already satisfied: packaging>=20.0 in /usr/local/lib/python3.10/dist-packages (from pooch>=1.0->librosa==0.8.0->-r requirements.txt (line 1)) (23.1)\n","Requirement already satisfied: charset-normalizer<4,>=2 in /usr/local/lib/python3.10/dist-packages (from requests->torchvision==0.15.2->-r requirements.txt (line 6)) (3.2.0)\n","Requirement already satisfied: idna<4,>=2.5 in /usr/local/lib/python3.10/dist-packages (from requests->torchvision==0.15.2->-r requirements.txt (line 6)) (3.4)\n","Requirement already satisfied: urllib3<3,>=1.21.1 in /usr/local/lib/python3.10/dist-packages (from requests->torchvision==0.15.2->-r requirements.txt (line 6)) (2.0.4)\n","Requirement already satisfied: certifi>=2017.4.17 in /usr/local/lib/python3.10/dist-packages (from requests->torchvision==0.15.2->-r requirements.txt (line 6)) (2023.7.22)\n","Requirement already satisfied: threadpoolctl>=2.0.0 in /usr/local/lib/python3.10/dist-packages (from scikit-learn!=0.19.0,>=0.14.0->librosa==0.8.0->-r requirements.txt (line 1)) (3.2.0)\n","Requirement already satisfied: cffi>=1.0 in /usr/local/lib/python3.10/dist-packages (from soundfile>=0.9.0->librosa==0.8.0->-r requirements.txt (line 1)) (1.15.1)\n","Requirement already satisfied: MarkupSafe>=2.0 in /usr/local/lib/python3.10/dist-packages (from jinja2->torch==2.0.1->-r requirements.txt (line 5)) (2.1.3)\n","Requirement already satisfied: mpmath>=0.19 in /usr/local/lib/python3.10/dist-packages (from sympy->torch==2.0.1->-r requirements.txt (line 5)) (1.3.0)\n","Requirement already satisfied: pycparser in /usr/local/lib/python3.10/dist-packages (from cffi>=1.0->soundfile>=0.9.0->librosa==0.8.0->-r requirements.txt (line 1)) (2.21)\n","Building wheels for collected packages: librosa\n","  Building wheel for librosa (setup.py) ... \u001b[?25l\u001b[?25hdone\n","  Created wheel for librosa: filename=librosa-0.8.0-py3-none-any.whl size=201367 sha256=70e1fa392c83445fb350c5cd9943f8b5ee22f03c2d14eed0644e6ee1da015971\n","  Stored in directory: /root/.cache/pip/wheels/bf/b7/85/2f8044306ccec014930aea23ad4852fca9e2584e21c6972bc6\n","Successfully built librosa\n","Installing collected packages: librosa\n","  Attempting uninstall: librosa\n","    Found existing installation: librosa 0.7.0\n","    Uninstalling librosa-0.7.0:\n","      Successfully uninstalled librosa-0.7.0\n","Successfully installed librosa-0.8.0\n"]}]},{"cell_type":"code","metadata":{"id":"ey_bN4M6X_95","colab":{"base_uri":"https://localhost:8080/"},"executionInfo":{"status":"ok","timestamp":1694730304583,"user_tz":-330,"elapsed":6591,"user":{"displayName":"AKASH SHARMA","userId":"08407422410206115369"}},"outputId":"b860fada-846c-4477-f2b3-d63528830fba"},"source":["!wget \"https://www.adrianbulat.com/downloads/python-fan/s3fd-619a316812.pth\" -O \"Wav2Lip/face_detection/detection/sfd/s3fd.pth\""],"execution_count":24,"outputs":[{"output_type":"stream","name":"stdout","text":["--2023-09-14 22:24:58--  https://www.adrianbulat.com/downloads/python-fan/s3fd-619a316812.pth\n","Resolving www.adrianbulat.com (www.adrianbulat.com)... 45.136.29.207\n","Connecting to www.adrianbulat.com (www.adrianbulat.com)|45.136.29.207|:443... connected.\n","HTTP request sent, awaiting response... 200 OK\n","Length: 89843225 (86M) [application/octet-stream]\n","Saving to: ‘Wav2Lip/face_detection/detection/sfd/s3fd.pth’\n","\n","Wav2Lip/face_detect 100%[===================>]  85.68M  18.7MB/s    in 5.4s    \n","\n","2023-09-14 22:25:04 (16.0 MB/s) - ‘Wav2Lip/face_detection/detection/sfd/s3fd.pth’ saved [89843225/89843225]\n","\n"]}]},{"cell_type":"markdown","metadata":{"id":"qdIQfY2Kswcb"},"source":["# Now lets try!"]},{"cell_type":"code","metadata":{"id":"KoVGMtjRZfeR","colab":{"base_uri":"https://localhost:8080/"},"executionInfo":{"status":"ok","timestamp":1694730329784,"user_tz":-330,"elapsed":383,"user":{"displayName":"AKASH SHARMA","userId":"08407422410206115369"}},"outputId":"b8896967-b7cc-4f8e-b58e-dc79ad232fab"},"source":["!cp \"/content/gdrive/MyDrive/projects/wav2lip/input/video_1.mp4\" \"/content/gdrive/MyDrive/projects/wav2lip/input/audio_1.wav\" sample_data/\n","!ls sample_data/"],"execution_count":25,"outputs":[{"output_type":"stream","name":"stdout","text":["anscombe.json  california_housing_test.csv   mnist_test.csv\t    README.md\n","audio_1.wav    california_housing_train.csv  mnist_train_small.csv  video_1.mp4\n"]}]},{"cell_type":"code","metadata":{"id":"jR5utmDMcSZY","colab":{"base_uri":"https://localhost:8080/"},"executionInfo":{"status":"ok","timestamp":1694730568970,"user_tz":-330,"elapsed":231683,"user":{"displayName":"AKASH SHARMA","userId":"08407422410206115369"}},"outputId":"0a5bf979-011c-4508-e1ee-633260ef56c4"},"source":["!cd Wav2Lip && python inference.py --checkpoint_path checkpoints/wav2lip_gan.pth --face \"../sample_data/video_1.mp4\" --audio \"../sample_data/audio_1.wav\""],"execution_count":26,"outputs":[{"output_type":"stream","name":"stdout","text":["Using cuda for inference.\n","Reading video frames...\n","Number of frames available for inference: 705\n","(80, 2241)\n","Length of mel chunks: 697\n","  0% 0/6 [00:00<?, ?it/s]\n","  0% 0/44 [00:00<?, ?it/s]\u001b[A\n","  2% 1/44 [00:39<28:15, 39.43s/it]\u001b[A\n","  5% 2/44 [00:42<12:30, 17.88s/it]\u001b[A\n","  7% 3/44 [00:44<07:26, 10.90s/it]\u001b[A\n","  9% 4/44 [00:47<05:02,  7.56s/it]\u001b[A\n"," 11% 5/44 [00:49<03:45,  5.77s/it]\u001b[A\n"," 14% 6/44 [00:52<02:55,  4.62s/it]\u001b[A\n"," 16% 7/44 [00:54<02:23,  3.89s/it]\u001b[A\n"," 18% 8/44 [00:56<02:02,  3.39s/it]\u001b[A\n"," 20% 9/44 [00:59<01:47,  3.07s/it]\u001b[A\n"," 23% 10/44 [01:01<01:38,  2.88s/it]\u001b[A\n"," 25% 11/44 [01:04<01:32,  2.80s/it]\u001b[A\n"," 27% 12/44 [01:06<01:25,  2.66s/it]\u001b[A\n"," 30% 13/44 [01:09<01:19,  2.56s/it]\u001b[A\n"," 32% 14/44 [01:11<01:15,  2.50s/it]\u001b[A\n"," 34% 15/44 [01:13<01:11,  2.46s/it]\u001b[A\n"," 36% 16/44 [01:16<01:08,  2.46s/it]\u001b[A\n"," 39% 17/44 [01:18<01:08,  2.52s/it]\u001b[A\n"," 41% 18/44 [01:21<01:04,  2.47s/it]\u001b[A\n"," 43% 19/44 [01:23<01:01,  2.45s/it]\u001b[A\n"," 45% 20/44 [01:26<00:58,  2.43s/it]\u001b[A\n"," 48% 21/44 [01:28<00:55,  2.41s/it]\u001b[A\n"," 50% 22/44 [01:30<00:53,  2.45s/it]\u001b[A\n"," 52% 23/44 [01:33<00:52,  2.51s/it]\u001b[A\n"," 55% 24/44 [01:35<00:49,  2.46s/it]\u001b[A\n"," 57% 25/44 [01:38<00:46,  2.44s/it]\u001b[A\n"," 59% 26/44 [01:40<00:43,  2.43s/it]\u001b[A\n"," 61% 27/44 [01:43<00:41,  2.43s/it]\u001b[A\n"," 64% 28/44 [01:45<00:39,  2.50s/it]\u001b[A\n"," 66% 29/44 [01:48<00:38,  2.54s/it]\u001b[A\n"," 68% 30/44 [01:50<00:35,  2.51s/it]\u001b[A\n"," 70% 31/44 [01:53<00:32,  2.47s/it]\u001b[A\n"," 73% 32/44 [01:55<00:29,  2.44s/it]\u001b[A\n"," 75% 33/44 [01:58<00:26,  2.43s/it]\u001b[A\n"," 77% 34/44 [02:00<00:24,  2.50s/it]\u001b[A\n"," 80% 35/44 [02:03<00:22,  2.54s/it]\u001b[A\n"," 82% 36/44 [02:05<00:19,  2.50s/it]\u001b[A\n"," 84% 37/44 [02:08<00:17,  2.47s/it]\u001b[A\n"," 86% 38/44 [02:10<00:14,  2.47s/it]\u001b[A\n"," 89% 39/44 [02:13<00:12,  2.47s/it]\u001b[A\n"," 91% 40/44 [02:15<00:10,  2.55s/it]\u001b[A\n"," 93% 41/44 [02:18<00:07,  2.56s/it]\u001b[A\n"," 95% 42/44 [02:20<00:05,  2.52s/it]\u001b[A\n"," 98% 43/44 [02:23<00:02,  2.49s/it]\u001b[A\n","100% 44/44 [02:43<00:00,  3.71s/it]\n","Load checkpoint from: checkpoints/wav2lip_gan.pth\n","Model loaded\n","100% 6/6 [03:10<00:00, 31.78s/it]\n","ffmpeg version 4.4.2-0ubuntu0.22.04.1 Copyright (c) 2000-2021 the FFmpeg developers\n","  built with gcc 11 (Ubuntu 11.2.0-19ubuntu1)\n","  configuration: --prefix=/usr --extra-version=0ubuntu0.22.04.1 --toolchain=hardened --libdir=/usr/lib/x86_64-linux-gnu --incdir=/usr/include/x86_64-linux-gnu --arch=amd64 --enable-gpl --disable-stripping --enable-gnutls --enable-ladspa --enable-libaom --enable-libass --enable-libbluray --enable-libbs2b --enable-libcaca --enable-libcdio --enable-libcodec2 --enable-libdav1d --enable-libflite --enable-libfontconfig --enable-libfreetype --enable-libfribidi --enable-libgme --enable-libgsm --enable-libjack --enable-libmp3lame --enable-libmysofa --enable-libopenjpeg --enable-libopenmpt --enable-libopus --enable-libpulse --enable-librabbitmq --enable-librubberband --enable-libshine --enable-libsnappy --enable-libsoxr --enable-libspeex --enable-libsrt --enable-libssh --enable-libtheora --enable-libtwolame --enable-libvidstab --enable-libvorbis --enable-libvpx --enable-libwebp --enable-libx265 --enable-libxml2 --enable-libxvid --enable-libzimg --enable-libzmq --enable-libzvbi --enable-lv2 --enable-omx --enable-openal --enable-opencl --enable-opengl --enable-sdl2 --enable-pocketsphinx --enable-librsvg --enable-libmfx --enable-libdc1394 --enable-libdrm --enable-libiec61883 --enable-chromaprint --enable-frei0r --enable-libx264 --enable-shared\n","  libavutil      56. 70.100 / 56. 70.100\n","  libavcodec     58.134.100 / 58.134.100\n","  libavformat    58. 76.100 / 58. 76.100\n","  libavdevice    58. 13.100 / 58. 13.100\n","  libavfilter     7.110.100 /  7.110.100\n","  libswscale      5.  9.100 /  5.  9.100\n","  libswresample   3.  9.100 /  3.  9.100\n","  libpostproc    55.  9.100 / 55.  9.100\n","\u001b[0;33mGuessed Channel Layout for Input Stream #0.0 : mono\n","\u001b[0mInput #0, wav, from '../sample_data/audio_1.wav':\n","  Metadata:\n","    encoder         : Lavf58.76.100\n","  Duration: 00:00:28.00, bitrate: 705 kb/s\n","  Stream #0:0: Audio: pcm_s16le ([1][0][0][0] / 0x0001), 44100 Hz, mono, s16, 705 kb/s\n","Input #1, avi, from 'temp/result.avi':\n","  Metadata:\n","    software        : Lavf59.27.100\n","  Duration: 00:00:27.88, start: 0.000000, bitrate: 2033 kb/s\n","  Stream #1:0: Video: mpeg4 (Simple Profile) (DIVX / 0x58564944), yuv420p, 1280x640 [SAR 1:1 DAR 2:1], 2029 kb/s, 25 fps, 25 tbr, 25 tbn, 25 tbc\n","Stream mapping:\n","  Stream #1:0 -> #0:0 (mpeg4 (native) -> h264 (libx264))\n","  Stream #0:0 -> #0:1 (pcm_s16le (native) -> aac (native))\n","Press [q] to stop, [?] for help\n","\u001b[1;36m[libx264 @ 0x5a54b6c0c3c0] \u001b[0m\u001b[0;33m-qscale is ignored, -crf is recommended.\n","\u001b[0m\u001b[1;36m[libx264 @ 0x5a54b6c0c3c0] \u001b[0musing SAR=1/1\n","\u001b[1;36m[libx264 @ 0x5a54b6c0c3c0] \u001b[0musing cpu capabilities: MMX2 SSE2Fast SSSE3 SSE4.2 AVX FMA3 BMI2 AVX2\n","\u001b[1;36m[libx264 @ 0x5a54b6c0c3c0] \u001b[0mprofile High, level 3.1, 4:2:0, 8-bit\n","\u001b[1;36m[libx264 @ 0x5a54b6c0c3c0] \u001b[0m264 - core 163 r3060 5db6aa6 - H.264/MPEG-4 AVC codec - Copyleft 2003-2021 - http://www.videolan.org/x264.html - options: cabac=1 ref=3 deblock=1:0:0 analyse=0x3:0x113 me=hex subme=7 psy=1 psy_rd=1.00:0.00 mixed_ref=1 me_range=16 chroma_me=1 trellis=1 8x8dct=1 cqm=0 deadzone=21,11 fast_pskip=1 chroma_qp_offset=-2 threads=3 lookahead_threads=1 sliced_threads=0 nr=0 decimate=1 interlaced=0 bluray_compat=0 constrained_intra=0 bframes=3 b_pyramid=2 b_adapt=1 b_bias=0 direct=1 weightb=1 open_gop=0 weightp=2 keyint=250 keyint_min=25 scenecut=40 intra_refresh=0 rc_lookahead=40 rc=crf mbtree=1 crf=23.0 qcomp=0.60 qpmin=0 qpmax=69 qpstep=4 ip_ratio=1.40 aq=1:1.00\n","Output #0, mp4, to 'results/result_voice.mp4':\n","  Metadata:\n","    encoder         : Lavf58.76.100\n","  Stream #0:0: Video: h264 (avc1 / 0x31637661), yuv420p(progressive), 1280x640 [SAR 1:1 DAR 2:1], q=2-31, 25 fps, 12800 tbn\n","    Metadata:\n","      encoder         : Lavc58.134.100 libx264\n","    Side data:\n","      cpb: bitrate max/min/avg: 0/0/0 buffer size: 0 vbv_delay: N/A\n","  Stream #0:1: Audio: aac (LC) (mp4a / 0x6134706D), 44100 Hz, mono, fltp, 69 kb/s\n","    Metadata:\n","      encoder         : Lavc58.134.100 aac\n","frame=  697 fps= 27 q=-1.0 Lsize=    3518kB time=00:00:27.98 bitrate=1030.0kbits/s speed=1.07x    \n","video:3258kB audio:238kB subtitle:0kB other streams:0kB global headers:0kB muxing overhead: 0.646433%\n","\u001b[1;36m[libx264 @ 0x5a54b6c0c3c0] \u001b[0mframe I:3     Avg QP:16.14  size: 23767\n","\u001b[1;36m[libx264 @ 0x5a54b6c0c3c0] \u001b[0mframe P:387   Avg QP:20.43  size:  6315\n","\u001b[1;36m[libx264 @ 0x5a54b6c0c3c0] \u001b[0mframe B:307   Avg QP:24.22  size:  2671\n","\u001b[1;36m[libx264 @ 0x5a54b6c0c3c0] \u001b[0mconsecutive B-frames: 37.7%  7.2% 10.3% 44.8%\n","\u001b[1;36m[libx264 @ 0x5a54b6c0c3c0] \u001b[0mmb I  I16..4: 29.6% 64.8%  5.6%\n","\u001b[1;36m[libx264 @ 0x5a54b6c0c3c0] \u001b[0mmb P  I16..4:  1.6%  7.7%  0.2%  P16..4: 24.3%  6.4%  2.5%  0.0%  0.0%    skip:57.3%\n","\u001b[1;36m[libx264 @ 0x5a54b6c0c3c0] \u001b[0mmb B  I16..4:  0.4%  2.1%  0.1%  B16..8: 29.8%  2.7%  0.3%  direct: 0.8%  skip:63.9%  L0:51.6% L1:44.5% BI: 4.0%\n","\u001b[1;36m[libx264 @ 0x5a54b6c0c3c0] \u001b[0m8x8 transform intra:79.9% inter:80.5%\n","\u001b[1;36m[libx264 @ 0x5a54b6c0c3c0] \u001b[0mcoded y,uvDC,uvAC intra: 30.4% 30.5% 5.4% inter: 6.1% 5.2% 0.0%\n","\u001b[1;36m[libx264 @ 0x5a54b6c0c3c0] \u001b[0mi16 v,h,dc,p: 48% 23% 20% 10%\n","\u001b[1;36m[libx264 @ 0x5a54b6c0c3c0] \u001b[0mi8 v,h,dc,ddl,ddr,vr,hd,vl,hu: 26% 17% 46%  2%  2%  2%  2%  2%  2%\n","\u001b[1;36m[libx264 @ 0x5a54b6c0c3c0] \u001b[0mi4 v,h,dc,ddl,ddr,vr,hd,vl,hu: 30% 21% 14%  4%  8%  8%  8%  4%  3%\n","\u001b[1;36m[libx264 @ 0x5a54b6c0c3c0] \u001b[0mi8c dc,h,v,p: 59% 18% 20%  2%\n","\u001b[1;36m[libx264 @ 0x5a54b6c0c3c0] \u001b[0mWeighted P-Frames: Y:0.0% UV:0.0%\n","\u001b[1;36m[libx264 @ 0x5a54b6c0c3c0] \u001b[0mref P L0: 70.8% 10.5% 13.5%  5.3%\n","\u001b[1;36m[libx264 @ 0x5a54b6c0c3c0] \u001b[0mref B L0: 84.3% 11.9%  3.8%\n","\u001b[1;36m[libx264 @ 0x5a54b6c0c3c0] \u001b[0mref B L1: 95.9%  4.1%\n","\u001b[1;36m[libx264 @ 0x5a54b6c0c3c0] \u001b[0mkb/s:957.02\n","\u001b[1;36m[aac @ 0x5a54b6c0e440] \u001b[0mQavg: 115.301\n"]}]},{"cell_type":"code","metadata":{"id":"uNOAZvkszEOw"},"source":["# use the \"files\" button on the left to download the result in the Wav2Lip/results/ folder."],"execution_count":null,"outputs":[]},{"cell_type":"markdown","metadata":{"id":"d7zgfrQqbKom"},"source":["## **Variations to try**\n"]},{"cell_type":"markdown","metadata":{"id":"0f9A9VDVbZAG"},"source":["1.   Use more padding to include the chin region"]},{"cell_type":"code","metadata":{"id":"45XW4SZAzIz5","colab":{"base_uri":"https://localhost:8080/"},"executionInfo":{"status":"ok","timestamp":1694730852051,"user_tz":-330,"elapsed":218430,"user":{"displayName":"AKASH SHARMA","userId":"08407422410206115369"}},"outputId":"3061d941-3ccd-41c3-e34a-23f47ea4b536"},"source":["!cd Wav2Lip && python inference.py --checkpoint_path checkpoints/wav2lip_gan.pth --face \"../sample_data/video_1.mp4\" --audio \"../sample_data/audio_1.wav\" --pads 0 20 0 0"],"execution_count":27,"outputs":[{"output_type":"stream","name":"stdout","text":["Using cuda for inference.\n","Reading video frames...\n","Number of frames available for inference: 705\n","(80, 2241)\n","Length of mel chunks: 697\n","  0% 0/6 [00:00<?, ?it/s]\n","  0% 0/44 [00:00<?, ?it/s]\u001b[A\n","  2% 1/44 [00:35<25:24, 35.46s/it]\u001b[A\n","  5% 2/44 [00:38<11:18, 16.15s/it]\u001b[A\n","  7% 3/44 [00:40<06:50, 10.01s/it]\u001b[A\n","  9% 4/44 [00:43<04:40,  7.01s/it]\u001b[A\n"," 11% 5/44 [00:45<03:28,  5.35s/it]\u001b[A\n"," 14% 6/44 [00:48<02:45,  4.37s/it]\u001b[A\n"," 16% 7/44 [00:50<02:18,  3.75s/it]\u001b[A\n"," 18% 8/44 [00:53<02:02,  3.40s/it]\u001b[A\n"," 20% 9/44 [00:55<01:51,  3.17s/it]\u001b[A\n"," 23% 10/44 [00:58<01:40,  2.95s/it]\u001b[A\n"," 25% 11/44 [01:00<01:32,  2.80s/it]\u001b[A\n"," 27% 12/44 [01:03<01:25,  2.68s/it]\u001b[A\n"," 30% 13/44 [01:05<01:21,  2.62s/it]\u001b[A\n"," 32% 14/44 [01:08<01:20,  2.67s/it]\u001b[A\n"," 34% 15/44 [01:11<01:17,  2.67s/it]\u001b[A\n"," 36% 16/44 [01:13<01:12,  2.61s/it]\u001b[A\n"," 39% 17/44 [01:16<01:09,  2.57s/it]\u001b[A\n"," 41% 18/44 [01:18<01:06,  2.55s/it]\u001b[A\n"," 43% 19/44 [01:21<01:03,  2.53s/it]\u001b[A\n"," 45% 20/44 [01:23<01:02,  2.59s/it]\u001b[A\n"," 48% 21/44 [01:26<00:58,  2.55s/it]\u001b[A\n"," 50% 22/44 [01:28<00:55,  2.52s/it]\u001b[A\n"," 52% 23/44 [01:31<00:52,  2.50s/it]\u001b[A\n"," 55% 24/44 [01:33<00:49,  2.49s/it]\u001b[A\n"," 57% 25/44 [01:36<00:48,  2.56s/it]\u001b[A\n"," 59% 26/44 [01:39<00:46,  2.61s/it]\u001b[A\n"," 61% 27/44 [01:41<00:43,  2.56s/it]\u001b[A\n"," 64% 28/44 [01:43<00:40,  2.53s/it]\u001b[A\n"," 66% 29/44 [01:46<00:37,  2.51s/it]\u001b[A\n"," 68% 30/44 [01:49<00:35,  2.53s/it]\u001b[A\n"," 70% 31/44 [01:51<00:33,  2.60s/it]\u001b[A\n"," 73% 32/44 [01:54<00:31,  2.62s/it]\u001b[A\n"," 75% 33/44 [01:56<00:28,  2.56s/it]\u001b[A\n"," 77% 34/44 [01:59<00:25,  2.53s/it]\u001b[A\n"," 80% 35/44 [02:01<00:22,  2.51s/it]\u001b[A\n"," 82% 36/44 [02:04<00:20,  2.50s/it]\u001b[A\n"," 84% 37/44 [02:06<00:17,  2.56s/it]\u001b[A\n"," 86% 38/44 [02:09<00:15,  2.53s/it]\u001b[A\n"," 89% 39/44 [02:11<00:12,  2.50s/it]\u001b[A\n"," 91% 40/44 [02:14<00:09,  2.49s/it]\u001b[A\n"," 93% 41/44 [02:16<00:07,  2.48s/it]\u001b[A\n"," 95% 42/44 [02:19<00:05,  2.53s/it]\u001b[A\n"," 98% 43/44 [02:22<00:02,  2.58s/it]\u001b[A\n","100% 44/44 [02:42<00:00,  3.69s/it]\n","Load checkpoint from: checkpoints/wav2lip_gan.pth\n","Model loaded\n","100% 6/6 [03:03<00:00, 30.51s/it]\n","ffmpeg version 4.4.2-0ubuntu0.22.04.1 Copyright (c) 2000-2021 the FFmpeg developers\n","  built with gcc 11 (Ubuntu 11.2.0-19ubuntu1)\n","  configuration: --prefix=/usr --extra-version=0ubuntu0.22.04.1 --toolchain=hardened --libdir=/usr/lib/x86_64-linux-gnu --incdir=/usr/include/x86_64-linux-gnu --arch=amd64 --enable-gpl --disable-stripping --enable-gnutls --enable-ladspa --enable-libaom --enable-libass --enable-libbluray --enable-libbs2b --enable-libcaca --enable-libcdio --enable-libcodec2 --enable-libdav1d --enable-libflite --enable-libfontconfig --enable-libfreetype --enable-libfribidi --enable-libgme --enable-libgsm --enable-libjack --enable-libmp3lame --enable-libmysofa --enable-libopenjpeg --enable-libopenmpt --enable-libopus --enable-libpulse --enable-librabbitmq --enable-librubberband --enable-libshine --enable-libsnappy --enable-libsoxr --enable-libspeex --enable-libsrt --enable-libssh --enable-libtheora --enable-libtwolame --enable-libvidstab --enable-libvorbis --enable-libvpx --enable-libwebp --enable-libx265 --enable-libxml2 --enable-libxvid --enable-libzimg --enable-libzmq --enable-libzvbi --enable-lv2 --enable-omx --enable-openal --enable-opencl --enable-opengl --enable-sdl2 --enable-pocketsphinx --enable-librsvg --enable-libmfx --enable-libdc1394 --enable-libdrm --enable-libiec61883 --enable-chromaprint --enable-frei0r --enable-libx264 --enable-shared\n","  libavutil      56. 70.100 / 56. 70.100\n","  libavcodec     58.134.100 / 58.134.100\n","  libavformat    58. 76.100 / 58. 76.100\n","  libavdevice    58. 13.100 / 58. 13.100\n","  libavfilter     7.110.100 /  7.110.100\n","  libswscale      5.  9.100 /  5.  9.100\n","  libswresample   3.  9.100 /  3.  9.100\n","  libpostproc    55.  9.100 / 55.  9.100\n","\u001b[0;33mGuessed Channel Layout for Input Stream #0.0 : mono\n","\u001b[0mInput #0, wav, from '../sample_data/audio_1.wav':\n","  Metadata:\n","    encoder         : Lavf58.76.100\n","  Duration: 00:00:28.00, bitrate: 705 kb/s\n","  Stream #0:0: Audio: pcm_s16le ([1][0][0][0] / 0x0001), 44100 Hz, mono, s16, 705 kb/s\n","Input #1, avi, from 'temp/result.avi':\n","  Metadata:\n","    software        : Lavf59.27.100\n","  Duration: 00:00:27.88, start: 0.000000, bitrate: 2037 kb/s\n","  Stream #1:0: Video: mpeg4 (Simple Profile) (DIVX / 0x58564944), yuv420p, 1280x640 [SAR 1:1 DAR 2:1], 2033 kb/s, 25 fps, 25 tbr, 25 tbn, 25 tbc\n","Stream mapping:\n","  Stream #1:0 -> #0:0 (mpeg4 (native) -> h264 (libx264))\n","  Stream #0:0 -> #0:1 (pcm_s16le (native) -> aac (native))\n","Press [q] to stop, [?] for help\n","\u001b[1;36m[libx264 @ 0x594a6ef68100] \u001b[0m\u001b[0;33m-qscale is ignored, -crf is recommended.\n","\u001b[0m\u001b[1;36m[libx264 @ 0x594a6ef68100] \u001b[0musing SAR=1/1\n","\u001b[1;36m[libx264 @ 0x594a6ef68100] \u001b[0musing cpu capabilities: MMX2 SSE2Fast SSSE3 SSE4.2 AVX FMA3 BMI2 AVX2\n","\u001b[1;36m[libx264 @ 0x594a6ef68100] \u001b[0mprofile High, level 3.1, 4:2:0, 8-bit\n","\u001b[1;36m[libx264 @ 0x594a6ef68100] \u001b[0m264 - core 163 r3060 5db6aa6 - H.264/MPEG-4 AVC codec - Copyleft 2003-2021 - http://www.videolan.org/x264.html - options: cabac=1 ref=3 deblock=1:0:0 analyse=0x3:0x113 me=hex subme=7 psy=1 psy_rd=1.00:0.00 mixed_ref=1 me_range=16 chroma_me=1 trellis=1 8x8dct=1 cqm=0 deadzone=21,11 fast_pskip=1 chroma_qp_offset=-2 threads=3 lookahead_threads=1 sliced_threads=0 nr=0 decimate=1 interlaced=0 bluray_compat=0 constrained_intra=0 bframes=3 b_pyramid=2 b_adapt=1 b_bias=0 direct=1 weightb=1 open_gop=0 weightp=2 keyint=250 keyint_min=25 scenecut=40 intra_refresh=0 rc_lookahead=40 rc=crf mbtree=1 crf=23.0 qcomp=0.60 qpmin=0 qpmax=69 qpstep=4 ip_ratio=1.40 aq=1:1.00\n","Output #0, mp4, to 'results/result_voice.mp4':\n","  Metadata:\n","    encoder         : Lavf58.76.100\n","  Stream #0:0: Video: h264 (avc1 / 0x31637661), yuv420p(progressive), 1280x640 [SAR 1:1 DAR 2:1], q=2-31, 25 fps, 12800 tbn\n","    Metadata:\n","      encoder         : Lavc58.134.100 libx264\n","    Side data:\n","      cpb: bitrate max/min/avg: 0/0/0 buffer size: 0 vbv_delay: N/A\n","  Stream #0:1: Audio: aac (LC) (mp4a / 0x6134706D), 44100 Hz, mono, fltp, 69 kb/s\n","    Metadata:\n","      encoder         : Lavc58.134.100 aac\n","frame=  697 fps= 27 q=-1.0 Lsize=    3514kB time=00:00:27.98 bitrate=1028.9kbits/s speed= 1.1x    \n","video:3254kB audio:238kB subtitle:0kB other streams:0kB global headers:0kB muxing overhead: 0.650298%\n","\u001b[1;36m[libx264 @ 0x594a6ef68100] \u001b[0mframe I:3     Avg QP:16.12  size: 23729\n","\u001b[1;36m[libx264 @ 0x594a6ef68100] \u001b[0mframe P:373   Avg QP:20.34  size:  6445\n","\u001b[1;36m[libx264 @ 0x594a6ef68100] \u001b[0mframe B:321   Avg QP:24.23  size:  2666\n","\u001b[1;36m[libx264 @ 0x594a6ef68100] \u001b[0mconsecutive B-frames: 34.9%  7.2% 12.1% 45.9%\n","\u001b[1;36m[libx264 @ 0x594a6ef68100] \u001b[0mmb I  I16..4: 29.2% 64.9%  5.8%\n","\u001b[1;36m[libx264 @ 0x594a6ef68100] \u001b[0mmb P  I16..4:  1.7%  7.9%  0.3%  P16..4: 24.5%  6.5%  2.6%  0.0%  0.0%    skip:56.7%\n","\u001b[1;36m[libx264 @ 0x594a6ef68100] \u001b[0mmb B  I16..4:  0.4%  2.0%  0.1%  B16..8: 29.8%  2.7%  0.3%  direct: 0.8%  skip:64.0%  L0:50.3% L1:45.9% BI: 3.9%\n","\u001b[1;36m[libx264 @ 0x594a6ef68100] \u001b[0m8x8 transform intra:79.9% inter:80.4%\n","\u001b[1;36m[libx264 @ 0x594a6ef68100] \u001b[0mcoded y,uvDC,uvAC intra: 30.5% 30.6% 5.3% inter: 6.1% 5.2% 0.0%\n","\u001b[1;36m[libx264 @ 0x594a6ef68100] \u001b[0mi16 v,h,dc,p: 48% 23% 19% 10%\n","\u001b[1;36m[libx264 @ 0x594a6ef68100] \u001b[0mi8 v,h,dc,ddl,ddr,vr,hd,vl,hu: 26% 17% 46%  2%  2%  2%  2%  2%  2%\n","\u001b[1;36m[libx264 @ 0x594a6ef68100] \u001b[0mi4 v,h,dc,ddl,ddr,vr,hd,vl,hu: 31% 20% 15%  4%  8%  8%  8%  4%  3%\n","\u001b[1;36m[libx264 @ 0x594a6ef68100] \u001b[0mi8c dc,h,v,p: 59% 18% 20%  2%\n","\u001b[1;36m[libx264 @ 0x594a6ef68100] \u001b[0mWeighted P-Frames: Y:0.0% UV:0.0%\n","\u001b[1;36m[libx264 @ 0x594a6ef68100] \u001b[0mref P L0: 70.5% 10.5% 13.7%  5.3%\n","\u001b[1;36m[libx264 @ 0x594a6ef68100] \u001b[0mref B L0: 84.1% 12.3%  3.7%\n","\u001b[1;36m[libx264 @ 0x594a6ef68100] \u001b[0mref B L1: 95.8%  4.2%\n","\u001b[1;36m[libx264 @ 0x594a6ef68100] \u001b[0mkb/s:955.86\n","\u001b[1;36m[aac @ 0x594a6ef69fc0] \u001b[0mQavg: 115.301\n"]}]},{"cell_type":"markdown","metadata":{"id":"uo-WnsxfbwTG"},"source":["2.   Use resize_factor to reduce the video resolution, as there is a change you might get better results for lower resolution videos. Why? Because the model was trained on low resolution faces."]},{"cell_type":"code","metadata":{"id":"xw0xFtZ2bsx8","executionInfo":{"status":"ok","timestamp":1694731037100,"user_tz":-330,"elapsed":81205,"user":{"displayName":"AKASH SHARMA","userId":"08407422410206115369"}},"outputId":"a8976bf8-7d31-479e-f108-2077a91a0cfd","colab":{"base_uri":"https://localhost:8080/"}},"source":["!cd Wav2Lip && python inference.py --checkpoint_path checkpoints/wav2lip_gan.pth --face \"../sample_data/video_1.mp4\" --audio \"../sample_data/audio_1.wav\" --resize_factor 2"],"execution_count":28,"outputs":[{"output_type":"stream","name":"stdout","text":["Using cuda for inference.\n","Reading video frames...\n","Number of frames available for inference: 705\n","(80, 2241)\n","Length of mel chunks: 697\n","  0% 0/6 [00:00<?, ?it/s]\n","  0% 0/44 [00:00<?, ?it/s]\u001b[A\n","  2% 1/44 [00:10<07:15, 10.13s/it]\u001b[A\n","  5% 2/44 [00:10<03:11,  4.56s/it]\u001b[A\n","  7% 3/44 [00:11<01:54,  2.79s/it]\u001b[A\n","  9% 4/44 [00:12<01:18,  1.95s/it]\u001b[A\n"," 11% 5/44 [00:12<00:58,  1.49s/it]\u001b[A\n"," 14% 6/44 [00:13<00:46,  1.21s/it]\u001b[A\n"," 16% 7/44 [00:14<00:38,  1.04s/it]\u001b[A\n"," 18% 8/44 [00:14<00:33,  1.08it/s]\u001b[A\n"," 20% 9/44 [00:15<00:29,  1.18it/s]\u001b[A\n"," 23% 10/44 [00:16<00:26,  1.26it/s]\u001b[A\n"," 25% 11/44 [00:16<00:25,  1.31it/s]\u001b[A\n"," 27% 12/44 [00:17<00:23,  1.34it/s]\u001b[A\n"," 30% 13/44 [00:18<00:22,  1.36it/s]\u001b[A\n"," 32% 14/44 [00:19<00:21,  1.38it/s]\u001b[A\n"," 34% 15/44 [00:19<00:20,  1.41it/s]\u001b[A\n"," 36% 16/44 [00:20<00:20,  1.37it/s]\u001b[A\n"," 39% 17/44 [00:21<00:20,  1.33it/s]\u001b[A\n"," 41% 18/44 [00:22<00:20,  1.29it/s]\u001b[A\n"," 43% 19/44 [00:22<00:19,  1.28it/s]\u001b[A\n"," 45% 20/44 [00:23<00:19,  1.24it/s]\u001b[A\n"," 48% 21/44 [00:24<00:18,  1.27it/s]\u001b[A\n"," 50% 22/44 [00:25<00:16,  1.32it/s]\u001b[A\n"," 52% 23/44 [00:25<00:15,  1.36it/s]\u001b[A\n"," 55% 24/44 [00:26<00:14,  1.39it/s]\u001b[A\n"," 57% 25/44 [00:27<00:13,  1.40it/s]\u001b[A\n"," 59% 26/44 [00:27<00:12,  1.42it/s]\u001b[A\n"," 61% 27/44 [00:28<00:11,  1.42it/s]\u001b[A\n"," 64% 28/44 [00:29<00:11,  1.43it/s]\u001b[A\n"," 66% 29/44 [00:30<00:10,  1.44it/s]\u001b[A\n"," 68% 30/44 [00:30<00:09,  1.44it/s]\u001b[A\n"," 70% 31/44 [00:31<00:09,  1.44it/s]\u001b[A\n"," 73% 32/44 [00:32<00:08,  1.46it/s]\u001b[A\n"," 75% 33/44 [00:32<00:07,  1.46it/s]\u001b[A\n"," 77% 34/44 [00:33<00:06,  1.47it/s]\u001b[A\n"," 80% 35/44 [00:34<00:06,  1.47it/s]\u001b[A\n"," 82% 36/44 [00:34<00:05,  1.42it/s]\u001b[A\n"," 84% 37/44 [00:35<00:05,  1.36it/s]\u001b[A\n"," 86% 38/44 [00:36<00:04,  1.31it/s]\u001b[A\n"," 89% 39/44 [00:37<00:03,  1.28it/s]\u001b[A\n"," 91% 40/44 [00:38<00:03,  1.24it/s]\u001b[A\n"," 93% 41/44 [00:38<00:02,  1.27it/s]\u001b[A\n"," 95% 42/44 [00:39<00:01,  1.32it/s]\u001b[A\n"," 98% 43/44 [00:40<00:00,  1.37it/s]\u001b[A\n","100% 44/44 [00:45<00:00,  1.03s/it]\n","Load checkpoint from: checkpoints/wav2lip_gan.pth\n","Model loaded\n","100% 6/6 [01:03<00:00, 10.51s/it]\n","ffmpeg version 4.4.2-0ubuntu0.22.04.1 Copyright (c) 2000-2021 the FFmpeg developers\n","  built with gcc 11 (Ubuntu 11.2.0-19ubuntu1)\n","  configuration: --prefix=/usr --extra-version=0ubuntu0.22.04.1 --toolchain=hardened --libdir=/usr/lib/x86_64-linux-gnu --incdir=/usr/include/x86_64-linux-gnu --arch=amd64 --enable-gpl --disable-stripping --enable-gnutls --enable-ladspa --enable-libaom --enable-libass --enable-libbluray --enable-libbs2b --enable-libcaca --enable-libcdio --enable-libcodec2 --enable-libdav1d --enable-libflite --enable-libfontconfig --enable-libfreetype --enable-libfribidi --enable-libgme --enable-libgsm --enable-libjack --enable-libmp3lame --enable-libmysofa --enable-libopenjpeg --enable-libopenmpt --enable-libopus --enable-libpulse --enable-librabbitmq --enable-librubberband --enable-libshine --enable-libsnappy --enable-libsoxr --enable-libspeex --enable-libsrt --enable-libssh --enable-libtheora --enable-libtwolame --enable-libvidstab --enable-libvorbis --enable-libvpx --enable-libwebp --enable-libx265 --enable-libxml2 --enable-libxvid --enable-libzimg --enable-libzmq --enable-libzvbi --enable-lv2 --enable-omx --enable-openal --enable-opencl --enable-opengl --enable-sdl2 --enable-pocketsphinx --enable-librsvg --enable-libmfx --enable-libdc1394 --enable-libdrm --enable-libiec61883 --enable-chromaprint --enable-frei0r --enable-libx264 --enable-shared\n","  libavutil      56. 70.100 / 56. 70.100\n","  libavcodec     58.134.100 / 58.134.100\n","  libavformat    58. 76.100 / 58. 76.100\n","  libavdevice    58. 13.100 / 58. 13.100\n","  libavfilter     7.110.100 /  7.110.100\n","  libswscale      5.  9.100 /  5.  9.100\n","  libswresample   3.  9.100 /  3.  9.100\n","  libpostproc    55.  9.100 / 55.  9.100\n","\u001b[0;33mGuessed Channel Layout for Input Stream #0.0 : mono\n","\u001b[0mInput #0, wav, from '../sample_data/audio_1.wav':\n","  Metadata:\n","    encoder         : Lavf58.76.100\n","  Duration: 00:00:28.00, bitrate: 705 kb/s\n","  Stream #0:0: Audio: pcm_s16le ([1][0][0][0] / 0x0001), 44100 Hz, mono, s16, 705 kb/s\n","Input #1, avi, from 'temp/result.avi':\n","  Metadata:\n","    software        : Lavf59.27.100\n","  Duration: 00:00:27.88, start: 0.000000, bitrate: 873 kb/s\n","  Stream #1:0: Video: mpeg4 (Simple Profile) (DIVX / 0x58564944), yuv420p, 640x320 [SAR 1:1 DAR 2:1], 868 kb/s, 25 fps, 25 tbr, 25 tbn, 25 tbc\n","Stream mapping:\n","  Stream #1:0 -> #0:0 (mpeg4 (native) -> h264 (libx264))\n","  Stream #0:0 -> #0:1 (pcm_s16le (native) -> aac (native))\n","Press [q] to stop, [?] for help\n","\u001b[1;36m[libx264 @ 0x5c175f7d66c0] \u001b[0m\u001b[0;33m-qscale is ignored, -crf is recommended.\n","\u001b[0m\u001b[1;36m[libx264 @ 0x5c175f7d66c0] \u001b[0musing SAR=1/1\n","\u001b[1;36m[libx264 @ 0x5c175f7d66c0] \u001b[0musing cpu capabilities: MMX2 SSE2Fast SSSE3 SSE4.2 AVX FMA3 BMI2 AVX2\n","\u001b[1;36m[libx264 @ 0x5c175f7d66c0] \u001b[0mprofile High, level 2.2, 4:2:0, 8-bit\n","\u001b[1;36m[libx264 @ 0x5c175f7d66c0] \u001b[0m264 - core 163 r3060 5db6aa6 - H.264/MPEG-4 AVC codec - Copyleft 2003-2021 - http://www.videolan.org/x264.html - options: cabac=1 ref=3 deblock=1:0:0 analyse=0x3:0x113 me=hex subme=7 psy=1 psy_rd=1.00:0.00 mixed_ref=1 me_range=16 chroma_me=1 trellis=1 8x8dct=1 cqm=0 deadzone=21,11 fast_pskip=1 chroma_qp_offset=-2 threads=3 lookahead_threads=1 sliced_threads=0 nr=0 decimate=1 interlaced=0 bluray_compat=0 constrained_intra=0 bframes=3 b_pyramid=2 b_adapt=1 b_bias=0 direct=1 weightb=1 open_gop=0 weightp=2 keyint=250 keyint_min=25 scenecut=40 intra_refresh=0 rc_lookahead=40 rc=crf mbtree=1 crf=23.0 qcomp=0.60 qpmin=0 qpmax=69 qpstep=4 ip_ratio=1.40 aq=1:1.00\n","Output #0, mp4, to 'results/result_voice.mp4':\n","  Metadata:\n","    encoder         : Lavf58.76.100\n","  Stream #0:0: Video: h264 (avc1 / 0x31637661), yuv420p(progressive), 640x320 [SAR 1:1 DAR 2:1], q=2-31, 25 fps, 12800 tbn\n","    Metadata:\n","      encoder         : Lavc58.134.100 libx264\n","    Side data:\n","      cpb: bitrate max/min/avg: 0/0/0 buffer size: 0 vbv_delay: N/A\n","  Stream #0:1: Audio: aac (LC) (mp4a / 0x6134706D), 44100 Hz, mono, fltp, 69 kb/s\n","    Metadata:\n","      encoder         : Lavc58.134.100 aac\n","frame=  697 fps= 83 q=-1.0 Lsize=    1386kB time=00:00:27.98 bitrate= 405.7kbits/s speed=3.32x    \n","video:1125kB audio:238kB subtitle:0kB other streams:0kB global headers:0kB muxing overhead: 1.683707%\n","\u001b[1;36m[libx264 @ 0x5c175f7d66c0] \u001b[0mframe I:3     Avg QP:17.83  size:  9818\n","\u001b[1;36m[libx264 @ 0x5c175f7d66c0] \u001b[0mframe P:348   Avg QP:21.66  size:  2396\n","\u001b[1;36m[libx264 @ 0x5c175f7d66c0] \u001b[0mframe B:346   Avg QP:26.50  size:   833\n","\u001b[1;36m[libx264 @ 0x5c175f7d66c0] \u001b[0mconsecutive B-frames: 30.6%  7.2%  7.7% 54.5%\n","\u001b[1;36m[libx264 @ 0x5c175f7d66c0] \u001b[0mmb I  I16..4: 27.8% 61.4% 10.8%\n","\u001b[1;36m[libx264 @ 0x5c175f7d66c0] \u001b[0mmb P  I16..4:  1.3%  6.8%  0.4%  P16..4: 22.7% 10.4%  5.7%  0.0%  0.0%    skip:52.7%\n","\u001b[1;36m[libx264 @ 0x5c175f7d66c0] \u001b[0mmb B  I16..4:  0.2%  1.8%  0.1%  B16..8: 30.1%  4.3%  0.8%  direct: 0.6%  skip:62.1%  L0:47.3% L1:46.2% BI: 6.4%\n","\u001b[1;36m[libx264 @ 0x5c175f7d66c0] \u001b[0m8x8 transform intra:79.9% inter:71.5%\n","\u001b[1;36m[libx264 @ 0x5c175f7d66c0] \u001b[0mcoded y,uvDC,uvAC intra: 38.7% 31.9% 8.9% inter: 8.0% 5.6% 0.1%\n","\u001b[1;36m[libx264 @ 0x5c175f7d66c0] \u001b[0mi16 v,h,dc,p: 52% 17% 21% 10%\n","\u001b[1;36m[libx264 @ 0x5c175f7d66c0] \u001b[0mi8 v,h,dc,ddl,ddr,vr,hd,vl,hu: 27% 15% 46%  2%  2%  2%  2%  2%  2%\n","\u001b[1;36m[libx264 @ 0x5c175f7d66c0] \u001b[0mi4 v,h,dc,ddl,ddr,vr,hd,vl,hu: 27% 16% 16%  4%  9%  9%  9%  5%  4%\n","\u001b[1;36m[libx264 @ 0x5c175f7d66c0] \u001b[0mi8c dc,h,v,p: 61% 16% 21%  2%\n","\u001b[1;36m[libx264 @ 0x5c175f7d66c0] \u001b[0mWeighted P-Frames: Y:0.0% UV:0.0%\n","\u001b[1;36m[libx264 @ 0x5c175f7d66c0] \u001b[0mref P L0: 69.8% 12.0% 12.6%  5.6%\n","\u001b[1;36m[libx264 @ 0x5c175f7d66c0] \u001b[0mref B L0: 84.4% 11.8%  3.9%\n","\u001b[1;36m[libx264 @ 0x5c175f7d66c0] \u001b[0mref B L1: 95.8%  4.2%\n","\u001b[1;36m[libx264 @ 0x5c175f7d66c0] \u001b[0mkb/s:330.40\n","\u001b[1;36m[aac @ 0x5c175f7db340] \u001b[0mQavg: 115.301\n"]}]},{"cell_type":"code","source":[],"metadata":{"id":"MZnrumK51ieI"},"execution_count":null,"outputs":[]}]}